<svg xmlns="http://www.w3.org/2000/svg" enable-background="new 0 0 512 512" viewBox="0 0 512 512" id="banana-smoothie"><path d="M199.852 198.927l9.521 3.972c5.332 2.23 11.48-.272 13.711-5.55l21.599-51.468h-33.895l-16.539 39.336C192.018 190.549 194.521 196.697 199.852 198.927zM298.056 18.787c2.231-5.332-.272-11.425-5.549-13.655l-9.576-4.027c-5.332-2.23-11.426.272-13.656 5.604l-20.674 49.184h33.895L298.056 18.787z"></path><path d="M396.532 187.284h-52.067c-2.884-8.65-7.127-16.811-12.622-24.266l-15.669-21.272c-2.938 2.394-6.583 3.863-10.555 4.08l17.465 23.667c9.848 13.33 15.07 29.162 15.07 45.702v72.633h-266.7v-72.633c0-16.54 5.223-32.372 15.07-45.702l17.465-23.667c-3.972-.218-7.617-1.687-10.555-4.08l-15.669 21.272c-11.153 15.125-17.192 33.406-17.192 52.176v263.599c0 18.172 14.744 32.916 32.97 32.916h222.522c18.226 0 32.97-14.744 32.97-32.916v-56.473l43.471-19.206c35.799-15.778 58.922-51.251 58.922-90.37V242.18C451.428 211.93 426.782 187.284 396.532 187.284zM418.458 312.745c0 26.061-15.397 49.728-39.281 60.283l-30.141 13.275V220.254h47.497c12.078 0 21.926 9.848 21.926 21.926V312.745zM301.484 77.764c0-6.039-4.896-10.99-10.99-10.99h-171.38c-6.094 0-10.99 4.951-10.99 10.99v3.482h193.361V77.764zM105.057 135.013h199.492c4.235 0 7.668-3.434 7.668-7.668s-3.433-7.667-7.668-7.667H105.057c-4.235 0-7.668 3.432-7.668 7.667S100.822 135.013 105.057 135.013zM105.057 107.455h199.492c4.235 0 7.668-3.433 7.668-7.668s-3.433-7.668-7.668-7.668H105.057c-4.235 0-7.668 3.433-7.668 7.668S100.822 107.455 105.057 107.455z"></path></svg>