<svg xmlns="http://www.w3.org/2000/svg" data-name="Layer 3" viewBox="0 0 64 64" id="dragon-fruit"><polygon fill="#a5a5a5" points="31.474 17.79 34 6 43 6 43 2 31 2 28.216 13.693 26.594 19.871 31.474 17.79"></polygon><polygon fill="#fcedd6" points="34 27 30 62 8 62 4 27 34 27"></polygon><path fill="#fce4bb" d="M24.24 30.514L31.847 27H4L8 62H23.112L16.8 57.232a5.125 5.125 0 01.553-8.544 7.258 7.258 0 003.173-8.946h0A7.259 7.259 0 0124.24 30.514zM7.08 18.941A7 7 0 0114 13h4.757A10.242 10.242 0 0026 10h0l3 5-2.653 3.941z"></path><rect width="34" height="4" x="2" y="23" fill="#cecece"></rect><path fill="#fcedd6" d="M5,23H5a5,5,0,0,1,5-5h4.384A37.112,37.112,0,0,0,29,15h0l1.172,1.172A9.656,9.656,0,0,1,33,23H5Z"></path><polygon fill="#cecece" points="8 62 30 62 30.686 56 7.314 56 8 62"></polygon><path fill="#d8d8d8" d="M16.039 60h14.19l.457-4H9.868A6.766 6.766 0 0016.039 60zM9 25H36V23H5.555A3.982 3.982 0 009 25z"></path><path fill="#fff" d="M9.472 28.786h0A1.368 1.368 0 008.113 30.3L9.724 45.1A1.483 1.483 0 0011.2 46.424h0a1.484 1.484 0 001.472-1.667L10.829 29.984A1.367 1.367 0 009.472 28.786zM10.682 50.905l.255 1.42a1.388 1.388 0 001.405 1.142h0A1.388 1.388 0 0013.663 51.8l-.295-1.412A1.37 1.37 0 0012.029 49.3h0A1.368 1.368 0 0010.682 50.905z"></path><path fill="#a0174e" d="M35,59.6h0A12.363,12.363,0,0,1,29,49h0l-5-3,4-1-.256-2.046A96.517,96.517,0,0,1,27,31h0l3,1,7-12,3,3,7-8,.5,4.519A5.038,5.038,0,0,0,52.509,24h0a5.037,5.037,0,0,1,4.716,3.269L59,32h3l-2,6v5.528A18.949,18.949,0,0,1,58,52h4l-4,4h0a16.674,16.674,0,0,1-12.81,6H43.662A16.828,16.828,0,0,1,35,59.6Z"></path><path fill="#a3245e" d="M35.844,58.907h0a11.063,11.063,0,0,1-5.37-9.486h0L28,47l1.579-1.158-.229-1.831a86.324,86.324,0,0,1-.666-10.695h0l2.684.895,6.264-10.737,2.684,2.684L46.579,19l.449,4.043a4.508,4.508,0,0,0,4.48,4.01h0a4.505,4.505,0,0,1,4.22,2.925l1.586,4.233H60l-1.789,5.368v4.946a16.946,16.946,0,0,1-1.79,7.58h0L58,54l-1.579,1.684h0a14.92,14.92,0,0,1-11.462,5.369H43.592A15.065,15.065,0,0,1,35.844,58.907Z"></path><ellipse cx="44" cy="43" fill="#fcedd6" rx="12" ry="15"></ellipse><rect width="2" height="2" x="43" y="31" fill="#828282"></rect><rect width="2" height="2" x="48" y="34" fill="#828282"></rect><rect width="2" height="2" x="45" y="37" fill="#828282"></rect><rect width="2" height="2" x="48" y="40" fill="#828282"></rect><rect width="2" height="2" x="36" y="39" fill="#828282"></rect><rect width="2" height="2" x="39" y="43" fill="#828282"></rect><rect width="2" height="2" x="36" y="47" fill="#828282"></rect><rect width="2" height="2" x="40" y="48" fill="#828282"></rect><rect width="2" height="2" x="42" y="52" fill="#828282"></rect><rect width="2" height="2" x="47" y="48" fill="#828282"></rect><rect width="2" height="2" x="50" y="44" fill="#828282"></rect><path d="M2,28H3.108l3.9,34.113A1,1,0,0,0,8,63H30a1,1,0,0,0,.993-.887l.478-4.174a13.219,13.219,0,0,0,3.017,2.52A17.839,17.839,0,0,0,43.662,63h1.527a17.565,17.565,0,0,0,13.518-6.293l4-4A1,1,0,0,0,62,51H59.547A20.061,20.061,0,0,0,61,43.528V38.162l1.948-5.846A1,1,0,0,0,62,31H59.691l-1.529-4.081A6.065,6.065,0,0,0,52.509,23,4.033,4.033,0,0,1,48.5,19.408l-.5-4.518a1,1,0,0,0-1.747-.548l-6.3,7.195-2.244-2.244a1.014,1.014,0,0,0-.835-.285,1,1,0,0,0-.735.488L34.676,22h-.725a10.535,10.535,0,0,0-1.418-4.381L34.809,7H43a1,1,0,0,0,1-1V2a1,1,0,0,0-1-1H31a1,1,0,0,0-.973.769l-2.216,9.306-.954-1.59a1,1,0,0,0-.735-.477,1.013,1.013,0,0,0-.829.285A9.18,9.18,0,0,1,18.758,12H14a8.047,8.047,0,0,0-7.828,6.384A6,6,0,0,0,4.09,22H2a1,1,0,0,0-1,1v4A1,1,0,0,0,2,28Zm3.12,0H31.175l-1.63,2.794-2.229-.742A1,1,0,0,0,26,31a97.827,97.827,0,0,0,.752,12.078l.145,1.167-3.139.785a1,1,0,0,0-.273,1.827l4.528,2.716A13.339,13.339,0,0,0,29.461,55H8.207ZM8.893,61l-.458-4h21.13l-.458,4ZM37.21,21.624l2.083,2.083a.965.965,0,0,0,.74.292,1,1,0,0,0,.72-.341l5.5-6.29.251,2.261a6.032,6.032,0,0,0,6,5.371,4.056,4.056,0,0,1,3.78,2.62l1.773,4.731A1,1,0,0,0,59,33h1.614l-1.56,4.684A1,1,0,0,0,59,38v5.528a18.03,18.03,0,0,1-1.9,8.025A1,1,0,0,0,58,53h1.588l-2.357,2.359A15.63,15.63,0,0,1,45.189,61H43.662a15.827,15.827,0,0,1-8.144-2.256h0A11.42,11.42,0,0,1,30,49a1,1,0,0,0-.485-.857l-2.93-1.758,1.657-.415a1,1,0,0,0,.75-1.094l-.256-2.046a96.133,96.133,0,0,1-.725-10.439l1.672.557a.992.992,0,0,0,1.179-.444ZM31.79,3H42V5H34a1,1,0,0,0-.978.79l-2.086,9.738c-.02-.021-.037-.043-.057-.063L29.794,14.38l-.511-.852ZM14,14h4.758a11.156,11.156,0,0,0,7.007-2.449l1.773,2.956A35.866,35.866,0,0,1,14.384,17H10a6.031,6.031,0,0,0-1.262.136A6.04,6.04,0,0,1,14,14Zm-4,5h4.384a37.891,37.891,0,0,0,14.384-2.818l.7.7A8.584,8.584,0,0,1,31.937,22H6.142A4,4,0,0,1,10,19ZM3,24H33.509l-1.167,2H3Z"></path><path d="M44,59c7.168,0,13-7.178,13-16S51.168,27,44,27,31,34.178,31,43,36.832,59,44,59Zm0-30c6.065,0,11,6.28,11,14S50.065,57,44,57,33,50.72,33,43,37.935,29,44,29Z"></path><rect width="2" height="2" x="43" y="31"></rect><rect width="2" height="2" x="48" y="34"></rect><rect width="2" height="2" x="45" y="37"></rect><rect width="2" height="2" x="48" y="40"></rect><rect width="2" height="2" x="36" y="39"></rect><rect width="2" height="2" x="39" y="43"></rect><rect width="2" height="2" x="36" y="47"></rect><rect width="2" height="2" x="40" y="48"></rect><rect width="2" height="2" x="42" y="52"></rect><rect width="2" height="2" x="47" y="48"></rect><rect width="2" height="2" x="50" y="44"></rect></svg>