<svg xmlns="http://www.w3.org/2000/svg" data-name="Layer 3" viewBox="0 0 64 64" id="grapefruits"><path fill="#f4b2b0" d="M51.931,26.233A5.966,5.966,0,0,1,49,27H44a8.719,8.719,0,0,1,1.582-2.8A18.867,18.867,0,0,0,24,43H34a3,3,0,0,0,6,0H56A18.989,18.989,0,0,1,40,61.741,18.987,18.987,0,0,0,51.931,26.233Z"></path><path fill="#b3404a" d="M53.743,26.133A6.975,6.975,0,0,0,56,21a1,1,0,0,0-1-1H52.325a9.757,9.757,0,0,0-7.161,3.127A20.268,20.268,0,0,0,43,23a19.935,19.935,0,0,0-6,.922V23a1,1,0,0,0-1-1H33.951a10.526,10.526,0,0,0-1.418-4.38L34.809,7H43a1,1,0,0,0,1-1V2a1,1,0,0,0-1-1H31a1,1,0,0,0-.973.769l-2.216,9.306-.954-1.59a1,1,0,0,0-1.564-.192A9.182,9.182,0,0,1,18.757,12H14a8.047,8.047,0,0,0-7.828,6.384A6,6,0,0,0,4.09,22H2a1,1,0,0,0-1,1v4a1,1,0,0,0,1,1H3.108l3.9,34.113A1,1,0,0,0,8,63H30a1,1,0,0,0,.994-.887l0-.036a19.32,19.32,0,0,0,8.926.685A20,20,0,0,0,63,43,19.969,19.969,0,0,0,53.743,26.133ZM52.325,22H53.9A5.008,5.008,0,0,1,49,26H45.526A7.767,7.767,0,0,1,52.325,22ZM31.79,3H42V5H34a1,1,0,0,0-.978.791l-2.087,9.736c-.019-.02-.036-.043-.057-.063L29.794,14.38l-.511-.852ZM14,14h4.757a11.161,11.161,0,0,0,7.008-2.449l1.773,2.956A35.866,35.866,0,0,1,14.384,17H10a6.031,6.031,0,0,0-1.262.136A6.04,6.04,0,0,1,14,14Zm-4,5h4.384a37.868,37.868,0,0,0,14.383-2.819l.7.7A8.585,8.585,0,0,1,31.937,22H6.142A4,4,0,0,1,10,19ZM3,24H35v.682A19.824,19.824,0,0,0,32.517,26H3Zm2.121,4h24.7a19.93,19.93,0,0,0-6.765,14H18a1,1,0,0,0-1,1,19.869,19.869,0,0,0,4.038,12H8.206ZM47.568,52.154l-7.131-7.131A3.971,3.971,0,0,0,40.874,44H50.949A13.919,13.919,0,0,1,47.568,52.154Zm-8.543-5.715,7.129,7.129A13.919,13.919,0,0,1,38,56.949V46.859A3.977,3.977,0,0,0,39.025,46.439ZM36,56.949a13.919,13.919,0,0,1-8.154-3.381l7.129-7.129a3.977,3.977,0,0,0,1.025.42Zm-9.568-4.795A13.919,13.919,0,0,1,23.051,44H33.126a3.971,3.971,0,0,0,.437,1.023ZM8.892,61l-.457-4H22.741a20.091,20.091,0,0,0,5.6,4ZM19.027,44h2.024a15.979,15.979,0,0,0,31.9,0h2.024a18,18,0,0,1-35.946,0Zm27.3,16.679A20.01,20.01,0,0,0,57,43a1,1,0,0,0-1-1H40a1,1,0,0,0-1,1,2,2,0,0,1-4,0,1,1,0,0,0-1-1H25.051A18.006,18.006,0,0,1,43,25c.262,0,.524.015.787.026a9.807,9.807,0,0,0-.736,1.658A1,1,0,0,0,44,28h5a6.95,6.95,0,0,0,2.9-.637,17.986,17.986,0,0,1-5.576,33.316Z"></path><path fill="#b3404a" d="M45.9,30.435a5.445,5.445,0,0,1-4.79,0l-.658-.33-.894,1.79.658.329a7.358,7.358,0,0,0,6.578,0l.658-.329-.894-1.79Z"></path></svg>