<svg xmlns="http://www.w3.org/2000/svg" data-name="Layer 3" viewBox="0 0 64 64" id="lemon"><polygon fill="#a5a5a5" points="34.373 17.79 36.899 6 45.899 6 45.899 2 33.899 2 31.115 13.693 29.494 19.871 34.373 17.79"></polygon><polygon fill="#d0e0a6" points="36.899 27 32.899 62 10.899 62 6.899 27 36.899 27"></polygon><path fill="#bed390" d="M27.139 30.514L34.747 27H6.9l4 35H26.011L19.7 57.232a5.125 5.125 0 01.553-8.544 7.257 7.257 0 003.173-8.946h0A7.261 7.261 0 0127.139 30.514zM9.979 18.941A7 7 0 0116.9 13h4.758A10.24 10.24 0 0028.9 10h0l3 5-2.653 3.941z"></path><rect width="34" height="4" x="4.899" y="23" fill="#cecece"></rect><path fill="#d0e0a6" d="M7.9,23h0a5,5,0,0,1,5-5h4.385A37.107,37.107,0,0,0,31.9,15h0l1.172,1.172A9.656,9.656,0,0,1,35.9,23H7.9Z"></path><polygon fill="#cecece" points="10.899 62 32.899 62 33.585 56 10.214 56 10.899 62"></polygon><path fill="#d8d8d8" d="M18.938 60h14.19l.457-4H12.767A6.766 6.766 0 0018.938 60zM11.9 25h27V23H8.454A3.983 3.983 0 0011.9 25z"></path><path fill="#f2f2f2" d="M12.372 28.786h0a1.368 1.368 0 00-1.36 1.515l1.611 14.8A1.484 1.484 0 0014.1 46.424h0a1.484 1.484 0 001.471-1.667l-1.84-14.773A1.369 1.369 0 0012.372 28.786zM13.582 50.905l.254 1.42a1.39 1.39 0 001.4 1.142h0A1.389 1.389 0 0016.563 51.8l-.3-1.412A1.368 1.368 0 0014.928 49.3h0A1.368 1.368 0 0013.582 50.905z"></path><path fill="#a2c15d" d="M42,47H29a15,15,0,0,0,30,0H46a2,2,0,0,1-4,0Z"></path><path fill="#bed390" d="M44,58A11,11,0,0,0,55,47H46a2,2,0,0,1-4,0H33A11,11,0,0,0,44,58Z"></path><path fill="#e0e8c5" d="M52.451,54.037l-6.525-6.525a1.99,1.99,0,0,1-3.852,0l-6.525,6.525q.316.381.665.733l.016.016q.351.349.733.665L43,49.414V57.95c.33.029.662.05,1,.05s.67-.021,1-.05V49.414l6.037,6.037A10.982,10.982,0,0,0,52.451,54.037Z"></path></svg>