<svg xmlns="http://www.w3.org/2000/svg" data-name="Layer 3" viewBox="0 0 64 64" id="orange"><circle cx="43" cy="47" r="11" fill="#f4b2b0"></circle><path fill="#b3404a" d="M6,28H7.108l3.9,34.114A1,1,0,0,0,12,63H34a1,1,0,0,0,.994-.886l.137-1.2a16,16,0,1,0,3.343-29.253L38.892,28H40a1,1,0,0,0,1-1V23a1,1,0,0,0-1-1H37.951a10.531,10.531,0,0,0-1.418-4.38L38.809,7H47a1,1,0,0,0,1-1V2a1,1,0,0,0-1-1H35a1,1,0,0,0-.973.769l-2.216,9.306-.954-1.59a1,1,0,0,0-1.564-.192A9.182,9.182,0,0,1,22.757,12H18a8.047,8.047,0,0,0-7.828,6.384A6,6,0,0,0,8.09,22H6a1,1,0,0,0-1,1v4A1,1,0,0,0,6,28ZM33.108,61H12.892l-.457-4h18.1a16.125,16.125,0,0,0,2.73,2.665ZM57,47A14,14,0,1,1,43,33,14.015,14.015,0,0,1,57,47ZM36.37,32.456A15.94,15.94,0,0,0,29.165,55H12.206L9.121,28H36.879ZM35.79,3H46V5H38a1,1,0,0,0-.978.791l-2.086,9.736c-.02-.02-.037-.042-.058-.063L33.794,14.38l-.511-.852ZM18,14h4.757a11.161,11.161,0,0,0,7.008-2.449l1.773,2.956A35.866,35.866,0,0,1,18.384,17H14a6.031,6.031,0,0,0-1.262.136A6.04,6.04,0,0,1,18,14Zm-4,5h4.384a37.868,37.868,0,0,0,14.383-2.819l.7.7A8.585,8.585,0,0,1,35.937,22H10.142A4,4,0,0,1,14,19ZM7,24H39v2H7Z"></path><path fill="#b3404a" d="M43,59A12,12,0,1,0,31,47,12.013,12.013,0,0,0,43,59Zm0-13a1,1,0,1,1-1,1A1,1,0,0,1,43,46Zm-1.285,3.7a2.746,2.746,0,0,0,.285.117v7.133a9.945,9.945,0,0,1-5.324-2.211ZM44,49.816a2.746,2.746,0,0,0,.285-.117l5.039,5.039A9.945,9.945,0,0,1,44,56.949Zm1.7-1.531A2.746,2.746,0,0,0,45.816,48h7.133a9.945,9.945,0,0,1-2.211,5.324ZM45.816,46a2.746,2.746,0,0,0-.117-.285l5.039-5.039A9.945,9.945,0,0,1,52.949,46Zm-1.531-1.7A2.746,2.746,0,0,0,44,44.184V37.051a9.945,9.945,0,0,1,5.324,2.211ZM42,44.184a2.746,2.746,0,0,0-.285.117l-5.039-5.039A9.945,9.945,0,0,1,42,37.051Zm-1.7,1.531a2.746,2.746,0,0,0-.117.285H33.051a9.945,9.945,0,0,1,2.211-5.324ZM40.184,48a2.746,2.746,0,0,0,.117.285l-5.039,5.039A9.945,9.945,0,0,1,33.051,48Z"></path></svg>