<svg xmlns="http://www.w3.org/2000/svg" data-name="Layer 3" viewBox="0 0 64 64" id="pear"><path fill="#346664" d="M48.3,17.562A13.479,13.479,0,0,1,59.211,12H62a10.852,10.852,0,0,1-9.708,6H48.437Z"></path><path fill="#a2c15d" d="M53.664,24.5h0A13.91,13.91,0,0,1,56,32.211h0a11.368,11.368,0,0,0,2.273,6.82h0A18.632,18.632,0,0,1,62,50.211v1.546A10.242,10.242,0,0,1,59,59h0a10.242,10.242,0,0,1-7.243,3H46.243A10.242,10.242,0,0,1,39,59h0a10.242,10.242,0,0,1-3-7.243V50.211a18.632,18.632,0,0,1,3.727-11.18h0A11.368,11.368,0,0,0,42,32.211h0A13.91,13.91,0,0,1,44.336,24.5h0A5.607,5.607,0,0,1,49,22h0A5.607,5.607,0,0,1,53.664,24.5Z"></path><path fill="#fce4bb" d="M53.019,26h0a13.384,13.384,0,0,1,2.012,7.086h0a10.9,10.9,0,0,0,1.959,6.264h0A17.875,17.875,0,0,1,60.2,49.614v1.42a9.736,9.736,0,0,1-2.585,6.653h0a8.558,8.558,0,0,1-6.24,2.755H46.624a8.558,8.558,0,0,1-6.24-2.755h0A9.736,9.736,0,0,1,37.8,51.034v-1.42A17.875,17.875,0,0,1,41.01,39.345h0a10.9,10.9,0,0,0,1.959-6.264h0A13.384,13.384,0,0,1,44.981,26h0A4.757,4.757,0,0,1,49,23.7h0A4.757,4.757,0,0,1,53.019,26Z"></path><path fill="#fcd275" d="M49,34l-1.236,3.707a10.229,10.229,0,0,1-2.473,4h0A7.823,7.823,0,0,0,43,47.24h0a7.823,7.823,0,0,0,2.936,6.109h0a8.956,8.956,0,0,1,2.9,4.159L49,58l.164-.492a8.956,8.956,0,0,1,2.9-4.159h0A7.823,7.823,0,0,0,55,47.24h0a7.823,7.823,0,0,0-2.291-5.531h0a10.229,10.229,0,0,1-2.473-4Z"></path><polygon fill="#a5a5a5" points="31.474 17.79 34 6 43 6 43 2 31 2 28.216 13.693 26.594 19.871 31.474 17.79"></polygon><polygon fill="#fcedd6" points="34 27 30 62 8 62 4 27 34 27"></polygon><path fill="#fce4bb" d="M24.24 30.514L31.847 27H4L8 62H23.112L16.8 57.232a5.125 5.125 0 01.553-8.544 7.258 7.258 0 003.173-8.946h0A7.259 7.259 0 0124.24 30.514zM7.08 18.941A7 7 0 0114 13h4.757A10.242 10.242 0 0026 10h0l3 5-2.653 3.941z"></path><rect width="34" height="4" x="2" y="23" fill="#cecece"></rect><path fill="#fcedd6" d="M5,23H5a5,5,0,0,1,5-5h4.384A37.112,37.112,0,0,0,29,15h0l1.172,1.172A9.656,9.656,0,0,1,33,23H5Z"></path><polygon fill="#cecece" points="8 62 30 62 30.686 56 7.314 56 8 62"></polygon><path fill="#d8d8d8" d="M16.039 60h14.19l.457-4H9.868A6.766 6.766 0 0016.039 60zM9 25H36V23H5.555A3.982 3.982 0 009 25z"></path><path fill="#fff" d="M9.472 28.786h0A1.368 1.368 0 008.113 30.3L9.724 45.1A1.483 1.483 0 0011.2 46.424h0a1.484 1.484 0 001.472-1.667L10.829 29.984A1.367 1.367 0 009.472 28.786zM10.682 50.905l.255 1.42a1.388 1.388 0 001.405 1.142h0A1.388 1.388 0 0013.663 51.8l-.295-1.412A1.37 1.37 0 0012.029 49.3h0A1.368 1.368 0 0010.682 50.905z"></path><rect width="2" height="2" x="46" y="46" fill="#a5683d"></rect><rect width="2" height="2" x="50" y="46" fill="#a5683d"></rect><path fill="#a5683d" d="M50,22H48a13.4,13.4,0,0,0-3.949-9.535l-.758-.758,1.414-1.414.758.758A15.38,15.38,0,0,1,50,22Z"></path></svg>