<svg xmlns="http://www.w3.org/2000/svg" data-name="Upload Glyph Style" viewBox="0 0 512 512" id="smoothie"><path d="M387.1,271a16.8,16.8,0,0,0-12.6,3.8l-16.9,14.3h-.1l-33.8,28.6,10-100.3a18.1,18.1,0,0,0-1.3-8.9,23.3,23.3,0,0,0,11-19.7,23.6,23.6,0,0,0-23.6-23.5H278.1l5-21.3a73.4,73.4,0,0,1,19.3-34.6l49.2-48.7a23.4,23.4,0,0,0-33.1-33.2l-55.3,55a86.9,86.9,0,0,0-23.6,42.1L230,165.3H201.1c-1.4-18.9-6.6-42.9-21.9-62.1-23.7-29.7-64.1-38.3-80.4-40.7a14.5,14.5,0,0,0-10.8,3,13.8,13.8,0,0,0-5.3,9.9c-1.4,16.4-2.1,57.6,21.6,87.5a97.3,97.3,0,0,0,6.9,7.5,23.1,23.1,0,0,0,3,38.7,18.9,18.9,0,0,0-1,8.2l25.2,249.6a19.3,19.3,0,0,0,19.5,17.7H292.2A131,131,0,0,0,376.7,454c52.2-44,61.6-121.6,21.3-176.6A16.2,16.2,0,0,0,387.1,271Zm-25.6,35.7a84.1,84.1,0,0,1-15,111.5A83.9,83.9,0,0,1,234.3,414ZM243,314.5l24.1-102.3h48a2.9,2.9,0,0,1,2.7,3.5l-6.7,66.8C290.9,303.2,266.6,314.4,243,314.5ZM98.5,78.7c15.4,2.4,48.9,10.3,68.2,34.4,12.5,15.8,16.9,35.9,18.3,52.2h-6.6l-49.6-64.6a8,8,0,1,0-12.7,9.8l42.1,54.8H129.8a66.4,66.4,0,0,1-13-12.4C97.5,128.6,97.4,94.2,98.5,78.7Zm19.6,110.1a7.6,7.6,0,0,1,7.5-7.5H319.8a7.5,7.5,0,1,1,0,14.9h-4a7.4,7.4,0,0,0-1.4-.4H132.6a7.4,7.4,0,0,0-1.4.4h-5.6A7.5,7.5,0,0,1,118.1,188.8ZM191,291.7c-14.6-15.2-33.9-24.3-57-27.7l-4.9-48.3a3.6,3.6,0,0,1,.9-2.7,3,3,0,0,1,1.4-.8h87.5l-20.3,86.3A67.5,67.5,0,0,1,191,291.7Zm175.4,150a113,113,0,0,1-76.1,26.9c-30.5-.7-58.8-13-79.5-34.9l11.3-9.4a98.6,98.6,0,0,0,70.1,29.4,105.5,105.5,0,0,0,11.3-.6,97.5,97.5,0,0,0,53.3-22.7c39.8-33.6,46.6-92.2,16.9-133.9l11.4-9.6C420.5,335.1,412.2,403.1,366.4,441.7Z"></path></svg>